<?xml version="1.0" standalone="no"?>
<!DOCTYPE svg PUBLIC "-//W3C//DTD SVG 20010904//EN"
 "http://www.w3.org/TR/2001/REC-SVG-20010904/DTD/svg10.dtd">
<svg version="1.0" xmlns="http://www.w3.org/2000/svg"
 width="260.000000pt" height="260.000000pt" viewBox="0 0 260.000000 260.000000"
 preserveAspectRatio="xMidYMid meet">
<metadata>
Created by potrace 1.11, written by Peter Selinger 2001-2013
</metadata>
<g transform="translate(0.000000,260.000000) scale(0.100000,-0.100000)"
fill="#000000" stroke="none">
<path d="M132 2589 c-46 -14 -109 -80 -122 -128 -7 -27 -10 -394 -8 -1183 l3
-1143 24 -38 c13 -21 42 -50 64 -65 l41 -27 1166 0 1166 0 41 27 c22 15 51 44
64 65 l24 38 0 1166 0 1165 -27 41 c-15 22 -44 51 -65 64 l-38 24 -1150 2
c-708 1 -1163 -2 -1183 -8z m816 -797 c110 -35 172 -101 193 -203 22 -112 -23
-218 -122 -285 l-46 -30 31 -21 c46 -30 80 -101 126 -268 23 -83 45 -158 47
-167 5 -16 -5 -18 -115 -18 l-119 0 -31 108 c-17 59 -36 127 -42 152 -15 59
-43 104 -74 118 -13 6 -52 14 -85 18 l-61 7 0 -202 0 -201 -115 0 -115 0 0
499 0 500 43 5 c96 13 119 14 267 11 122 -2 168 -7 218 -23z m858 13 c206 -35
343 -151 390 -328 19 -71 18 -235 -2 -310 -46 -179 -162 -292 -354 -347 -87
-25 -294 -37 -433 -25 l-87 7 0 498 0 499 53 5 c28 3 66 8 82 9 82 10 272 5
351 -8z"/>
<path d="M668 1644 c-16 -5 -18 -21 -18 -146 l0 -141 77 7 c131 11 187 55 186
146 -1 58 -20 93 -66 116 -31 17 -145 28 -179 18z"/>
<path d="M1563 1634 c-10 -4 -13 -81 -13 -336 l0 -331 93 5 c186 10 286 93
318 264 21 110 -5 238 -61 306 -50 60 -124 90 -233 94 -51 2 -98 1 -104 -2z"/>
</g>
</svg>
