<?xml version="1.0" encoding="utf-8"?>
<!-- Generator: Adobe Illustrator 20.0.0, SVG Export Plug-In . SVG Version: 6.00 Build 0)  -->
<svg version="1.1" id="Layer_1" xmlns="http://www.w3.org/2000/svg" xmlns:xlink="http://www.w3.org/1999/xlink" x="0px" y="0px"
	 viewBox="0 0 200 35" style="enable-background:new 0 0 200 35;" xml:space="preserve">
<style type="text/css">
	.st0{fill:#FFFFFF;}
</style>
<g>
	<g>
		<path class="st0" d="M0,0.8c2.5-0.4,6.2-0.7,10.2-0.7c5,0,8.6,0.8,11,2.7c2,1.6,3.1,4,3.1,7.1c0,4.3-3.1,7.3-6,8.4v0.2
			c2.4,1,3.7,3.2,4.5,6.4c1.1,3.8,2.1,8.3,2.8,9.6h-7.9c-0.6-1-1.4-3.7-2.4-7.9c-0.9-4.2-2.4-5.4-5.5-5.4H7.6v13.4H0V0.8z M7.6,15.4
			h3c3.8,0,6.1-1.9,6.1-4.9c0-3.1-2.1-4.7-5.6-4.7C9.2,5.8,8.2,6,7.6,6.1V15.4z"/>
		<path class="st0" d="M28.4,0.8c2.8-0.5,6.5-0.7,10.4-0.7c6.5,0,10.6,1.2,13.9,3.6c3.5,2.6,5.7,6.8,5.7,12.8c0,6.5-2.4,11-5.6,13.8
			c-3.6,3-9,4.4-15.7,4.4c-4,0-6.8-0.3-8.7-0.5V0.8z M36.1,28.5c0.7,0.2,1.7,0.2,2.7,0.2c7,0.1,11.5-3.8,11.5-11.9
			C50.4,9.7,46.2,6,39.6,6c-1.7,0-2.8,0.2-3.5,0.3V28.5z"/>
		<path class="st0" d="M69,29.1c1.9,1.2,4.8,2.2,7.8,2.2c4.4,0,7-2.3,7-5.7c0-3.1-1.8-4.9-6.3-6.7c-5.5-1.9-8.9-4.8-8.9-9.5
			c0-5.2,4.3-9.1,10.9-9.1c3.4,0,5.9,0.8,7.4,1.6l-1.2,3.5c-1.1-0.6-3.3-1.6-6.4-1.6c-4.6,0-6.3,2.7-6.3,5c0,3.1,2,4.7,6.7,6.5
			c5.7,2.2,8.6,4.9,8.6,9.9c0,5.2-3.8,9.7-11.8,9.7c-3.2,0-6.8-0.9-8.6-2.1L69,29.1z"/>
		<path class="st0" d="M97,4.3v5.6h6.4v3.4H97v13.2c0,3,0.9,4.7,3.3,4.7c1.2,0,2-0.2,2.6-0.3l0.2,3.3c-0.9,0.4-2.2,0.6-3.9,0.6
			c-2.1,0-3.7-0.7-4.8-1.9c-1.3-1.3-1.7-3.5-1.7-6.4V13.3h-3.8V9.9h3.8V5.5L97,4.3z"/>
		<path class="st0" d="M134.5,4.3v5.6h6.4v3.4h-6.4v13.2c0,3,0.9,4.7,3.3,4.7c1.2,0,2-0.2,2.6-0.3l0.2,3.3c-0.9,0.4-2.2,0.6-3.9,0.6
			c-2.1,0-3.7-0.7-4.8-1.9c-1.3-1.3-1.7-3.5-1.7-6.4V13.3h-3.8V9.9h3.8V5.5L134.5,4.3z"/>
		<path class="st0" d="M121.1,34.3l-0.4-3.1h-0.2c-1.4,1.9-4,3.6-7.5,3.6c-4.9,0-7.5-3.5-7.5-7c0-5.9,5.2-9.1,14.7-9.1v-0.5
			c0-2-0.6-5.6-5.5-5.6c-2.3,0-4.6,0.7-6.4,1.8l-1-2.9c2-1.3,4.9-2.2,8-2.2c7.5,0,9.3,5.1,9.3,10v9.1c0,2.1,0.1,4.2,0.4,5.9H121.1z
			 M120.4,21.9c-4.8-0.1-10.3,0.8-10.3,5.5c0,2.9,1.9,4.2,4.2,4.2c3.2,0,5.2-2,5.9-4.1c0.2-0.5,0.3-1,0.3-1.4V21.9z"/>
		<path class="st0" d="M149.6,3.1c0.1,1.5-1.1,2.7-2.8,2.7c-1.6,0-2.7-1.2-2.7-2.7c0-1.6,1.2-2.8,2.8-2.8
			C148.5,0.3,149.6,1.5,149.6,3.1z M144.6,34.3V9.9h4.4v24.4H144.6z"/>
		<path class="st0" d="M176.3,21.9c0,9-6.3,13-12.2,13c-6.6,0-11.7-4.8-11.7-12.6c0-8.2,5.3-13,12.1-13
			C171.5,9.4,176.3,14.5,176.3,21.9z M156.9,22.2c0,5.3,3.1,9.4,7.4,9.4c4.2,0,7.4-4,7.4-9.5c0-4.1-2.1-9.4-7.3-9.4
			C159.2,12.7,156.9,17.6,156.9,22.2z"/>
		<path class="st0" d="M179.2,16.5c0-2.5-0.1-4.6-0.2-6.6h3.9l0.3,4h0.1c1.2-2.3,4-4.6,8.1-4.6c3.4,0,8.6,2,8.6,10.4v14.6h-4.4V20.3
			c0-3.9-1.5-7.2-5.6-7.2c-2.9,0-5.2,2.1-6,4.5c-0.2,0.6-0.3,1.3-0.3,2.1v14.7h-4.4V16.5z"/>
	</g>
</g>
</svg>
