<?xml version="1.0" encoding="utf-8"?>
<!-- Generator: Adobe Illustrator 19.2.1, SVG Export Plug-In . SVG Version: 6.00 Build 0)  -->
<svg version="1.1" id="Camada_1" xmlns="http://www.w3.org/2000/svg" xmlns:xlink="http://www.w3.org/1999/xlink" x="0px" y="0px"
	 viewBox="0 0 64 64" style="enable-background:new 0 0 64 64;" xml:space="preserve">
<style type="text/css">
	.st0{fill:#293E68;}
	.st1{fill:#FFFFFF;}
</style>
<rect class="st0" width="64" height="64"/>
<g>
	<path class="st1" d="M14,19.8c1.7-0.3,4.3-0.5,7.1-0.5c3.5,0,5.9,0.5,7.6,1.9c1.4,1.1,2.2,2.8,2.2,4.9c0,3-2.1,5.1-4.2,5.8V32
		c1.6,0.7,2.6,2.2,3.1,4.4c0.7,2.7,1.5,5.7,1.9,6.6h-5.5c-0.4-0.7-0.9-2.6-1.6-5.5c-0.6-2.9-1.6-3.7-3.8-3.8h-1.6V43H14V19.8z
		 M19.3,29.9h2.1c2.7,0,4.2-1.3,4.2-3.4c0-2.2-1.5-3.2-3.9-3.3c-1.3,0-2,0.1-2.4,0.2V29.9z"/>
	<path class="st1" d="M33.8,19.8c2-0.3,4.5-0.5,7.2-0.5c4.5,0,7.4,0.8,9.6,2.5c2.4,1.8,4,4.7,4,8.9c0,4.5-1.6,7.6-3.9,9.5
		c-2.5,2.1-6.3,3-10.9,3c-2.8,0-4.7-0.2-6-0.3V19.8z M39.1,39c0.5,0.1,1.2,0.1,1.9,0.1c4.8,0,8-2.6,8-8.2c0-4.9-2.8-7.5-7.4-7.5
		c-1.2,0-2,0.1-2.4,0.2V39z"/>
</g>
</svg>
