<?xml version="1.0" encoding="utf-8"?>
<!-- Generator: Adobe Illustrator 19.1.0, SVG Export Plug-In . SVG Version: 6.00 Build 0)  -->
<svg version="1.1" id="Layer_1" xmlns="http://www.w3.org/2000/svg" xmlns:xlink="http://www.w3.org/1999/xlink" x="0px" y="0px"
	 viewBox="0 0 393 48" style="enable-background:new 0 0 393 48;" xml:space="preserve">
<style type="text/css">
	.st0{fill:#374b64;}
	.st1{fill:#6987A5;}
</style>
<g>
	<path class="st0" d="M0,2.4c2.6-0.4,6.3-0.7,10.6-0.7c5.2,0,8.9,0.8,11.4,2.8c2.1,1.7,3.3,4.2,3.3,7.4c0,4.4-3.2,7.5-6.2,8.6v0.2
		c2.5,1,3.8,3.3,4.7,6.5c1.1,4,2.1,8.6,2.8,10h-8.1c-0.5-1-1.4-3.9-2.4-8.2c-1-4.4-2.5-5.6-5.8-5.6H7.9v13.8H0V2.4z M7.9,17.5H11
		c4,0,6.3-2,6.3-5.1c0-3.2-2.2-4.9-5.8-4.9c-1.9,0-3,0.1-3.6,0.3V17.5z"/>
	<path class="st0" d="M35.5,26.8c0.2,3.3,3.5,4.9,7.2,4.9c2.7,0,4.9-0.4,7.1-1.1l1,5.4c-2.6,1.1-5.8,1.6-9.2,1.6
		c-8.7,0-13.6-5-13.6-13c0-6.5,4-13.6,12.9-13.6c8.3,0,11.4,6.4,11.4,12.7c0,1.4-0.2,2.6-0.3,3.1H35.5z M44.9,21.4
		c0-1.9-0.8-5.2-4.5-5.2c-3.3,0-4.7,3.1-4.9,5.2H44.9z"/>
	<path class="st0" d="M55.6,30.2c1.5,0.9,4.5,1.9,6.8,1.9c2.4,0,3.4-0.8,3.4-2.1c0-1.4-0.8-2-3.7-3c-5.3-1.8-7.4-4.6-7.3-7.7
		c0-4.8,4.1-8.4,10.4-8.4c3,0,5.6,0.7,7.2,1.5L71,17.9c-1.1-0.6-3.4-1.5-5.5-1.5c-1.9,0-3,0.8-3,2c0,1.3,1,1.9,4.1,3
		c4.9,1.7,6.8,4.2,6.9,7.9c0,4.8-3.7,8.3-11,8.3c-3.3,0-6.3-0.8-8.3-1.8L55.6,30.2z"/>
	<path class="st0" d="M101.1,28.9c0,3.3,0.1,6.1,0.2,8.2h-6.9l-0.4-3.6h-0.2c-1,1.6-3.4,4.2-8,4.2c-5.2,0-9-3.2-9-11.1v-15h7.9v13.7
		c0,3.7,1.2,6,4,6c2.2,0,3.5-1.5,4-2.8c0.2-0.5,0.3-1,0.3-1.7V11.5h7.9V28.9z"/>
	<path class="st0" d="M106.2,0h7.9v37.1h-7.9V0z"/>
	<path class="st0" d="M128.1,4.6v6.9h5.7v5.8h-5.7v9.2c0,3.1,0.8,4.5,3.1,4.5c1.1,0,1.6-0.1,2.4-0.2l0.1,6c-1,0.4-2.9,0.7-5.1,0.7
		c-2.6,0-4.7-0.9-6-2.2c-1.5-1.5-2.2-4-2.2-7.6V17.4H117v-5.8h3.4V6.8L128.1,4.6z"/>
	<path class="st0" d="M158.4,30.9c0,2.4,0.1,4.8,0.4,6.2h-7.2l-0.5-2.6H151c-1.7,2-4.3,3.1-7.3,3.1c-5.2,0-8.3-3.8-8.3-7.8
		c0-6.6,6-9.8,15-9.8v-0.3c0-1.4-0.7-3.3-4.6-3.3c-2.6,0-5.4,0.9-7.1,1.9l-1.5-5.1c1.8-1,5.3-2.3,9.9-2.3c8.5,0,11.2,5,11.2,11.1
		V30.9z M150.7,25c-4.2,0-7.4,1-7.4,4c0,2,1.4,3,3.1,3c1.9,0,3.6-1.3,4.1-2.9c0.1-0.4,0.2-0.9,0.2-1.4V25z"/>
	<path class="st0" d="M188.2,0v29.5c0,2.9,0.1,5.9,0.2,7.6h-7.1l-0.3-3.7h-0.2c-1.6,2.8-4.7,4.3-8,4.3c-6.1,0-10.9-5.2-10.9-13.1
		c-0.1-8.6,5.3-13.6,11.4-13.6c3.2,0,5.6,1.1,6.7,2.9h0.1V0H188.2z M180.2,22.4c0-0.4,0-1-0.1-1.5c-0.5-2.1-2.2-3.9-4.6-3.9
		c-3.7,0-5.5,3.2-5.5,7.3c0,4.3,2.1,7.1,5.4,7.1c2.3,0,4.2-1.6,4.6-3.8c0.1-0.6,0.2-1.2,0.2-1.8V22.4z"/>
	<path class="st0" d="M218.5,24c0,9.3-6.6,13.6-13.5,13.6c-7.5,0-13.2-4.9-13.2-13.2c0-8.3,5.4-13.6,13.7-13.6
		C213.2,10.9,218.5,16.3,218.5,24z M200,24.3c0,4.4,1.8,7.7,5.2,7.7c3.1,0,5.1-3.1,5.1-7.7c0-3.8-1.5-7.6-5.1-7.6
		C201.4,16.6,200,20.5,200,24.3z"/>
	<path class="st0" d="M222,30.2c1.5,0.9,4.5,1.9,6.8,1.9c2.4,0,3.4-0.8,3.4-2.1c0-1.4-0.8-2-3.7-3c-5.3-1.8-7.4-4.6-7.3-7.7
		c0-4.8,4.1-8.4,10.4-8.4c3,0,5.6,0.7,7.2,1.5l-1.4,5.5c-1.2-0.6-3.4-1.5-5.5-1.5c-1.9,0-3,0.8-3,2c0,1.3,1,1.9,4.1,3
		c4.9,1.7,6.8,4.2,6.9,7.9c0,4.8-3.7,8.3-11,8.3c-3.3,0-6.3-0.8-8.3-1.8L222,30.2z"/>
</g>
<g>
	<path class="st1" d="M244.2,2.4c2.8-0.5,6.1-0.8,9.7-0.8c6.5,0,11.2,1.6,14.3,4.4c3.2,2.9,5,6.9,5,12.6c0,5.7-1.8,10.4-5.1,13.7
		c-3.3,3.3-8.8,5.1-15.6,5.1c-3.3,0-6-0.2-8.3-0.4V2.4z M248.8,33.5c1.1,0.2,2.8,0.2,4.6,0.2c9.8,0,15-5.4,15-14.9
		c0.1-8.3-4.6-13.6-14.3-13.6c-2.4,0-4.1,0.2-5.3,0.5V33.5z"/>
	<path class="st1" d="M282.7,4.7c0,1.6-1.1,2.8-2.9,2.8c-1.7,0-2.8-1.3-2.8-2.8c0-1.6,1.1-2.9,2.9-2.9
		C281.5,1.8,282.7,3.1,282.7,4.7z M277.5,37.1V11.8h4.6v25.3H277.5z"/>
	<path class="st1" d="M310.1,33.4c0,5.8-1.2,9.3-3.6,11.6c-2.5,2.2-6.1,3-9.2,3c-3,0-6.4-0.7-8.4-2.1l1.2-3.6c1.7,1.1,4.3,2,7.4,2
		c4.7,0,8.1-2.5,8.1-8.9v-2.8h-0.1c-1.4,2.4-4.1,4.2-8,4.2c-6.3,0-10.8-5.3-10.8-12.3c0-8.6,5.6-13.4,11.4-13.4
		c4.4,0,6.7,2.2,7.9,4.3h0.1l0.2-3.8h4.1c-0.2,1.8-0.2,3.9-0.2,6.9V33.4z M305.5,21.8c0-0.8-0.1-1.5-0.3-2c-0.8-2.7-3-4.9-6.4-4.9
		c-4.4,0-7.5,3.7-7.5,9.6c0,5,2.6,9.1,7.5,9.1c2.9,0,5.4-1.8,6.4-4.7c0.3-0.8,0.4-1.7,0.4-2.5V21.8z"/>
	<path class="st1" d="M321.2,4.7c0,1.6-1.1,2.8-2.9,2.8c-1.7,0-2.8-1.3-2.8-2.8c0-1.6,1.2-2.9,2.9-2.9C320,1.8,321.2,3.1,321.2,4.7z
		 M316,37.1V11.8h4.6v25.3H316z"/>
	<path class="st1" d="M332.5,5.7v6.1h6.6v3.5h-6.6v13.6c0,3.1,0.9,4.9,3.4,4.9c1.3,0,2-0.1,2.7-0.3l0.2,3.5
		c-0.9,0.3-2.3,0.6-4.1,0.6c-2.1,0-3.9-0.7-5-1.9c-1.3-1.4-1.8-3.7-1.8-6.6V15.3h-3.9v-3.5h3.9V7.1L332.5,5.7z"/>
	<path class="st1" d="M360.7,31c0,2.2,0.1,4.3,0.4,6.1h-4.1l-0.4-3.2h-0.2c-1.4,2-4.1,3.8-7.7,3.8c-5.1,0-7.7-3.6-7.7-7.3
		c0-6.1,5.4-9.5,15.2-9.4v-0.5c0-2-0.6-5.8-5.7-5.8c-2.4,0-4.9,0.7-6.6,1.9l-1-3.1c2.1-1.3,5.2-2.2,8.4-2.2c7.7,0,9.6,5.3,9.6,10.3
		V31z M356.3,24.2c-5-0.1-10.7,0.8-10.7,5.7c0,3,2,4.4,4.3,4.4c3.3,0,5.5-2.1,6.2-4.2c0.2-0.5,0.2-1,0.2-1.5V24.2z"/>
	<path class="st1" d="M371.9,4.7c0,1.6-1.1,2.8-2.9,2.8c-1.7,0-2.8-1.3-2.8-2.8c0-1.6,1.1-2.9,2.9-2.9
		C370.8,1.8,371.9,3.1,371.9,4.7z M366.8,37.1V11.8h4.6v25.3H366.8z"/>
	<path class="st1" d="M377.1,32.4c1.4,0.8,3.8,1.8,6.1,1.8c3.3,0,4.9-1.6,4.9-3.8c0-2.2-1.3-3.3-4.7-4.6c-4.6-1.7-6.7-4.1-6.7-7.2
		c0-4.1,3.3-7.4,8.7-7.4c2.6,0,4.8,0.7,6.2,1.6l-1.1,3.3c-1-0.6-2.8-1.5-5.2-1.5c-2.7,0-4.2,1.6-4.2,3.4c0,2.1,1.5,3,4.8,4.3
		c4.3,1.6,6.6,3.8,6.6,7.6c0,4.5-3.5,7.6-9.4,7.6c-2.8,0-5.3-0.7-7.1-1.8L377.1,32.4z"/>
</g>
</svg>
